<?xml version="1.0" encoding="UTF-8"?>
<svg id="_圖層_2" data-name="圖層 2" xmlns="http://www.w3.org/2000/svg" xmlns:xlink="http://www.w3.org/1999/xlink" viewBox="0 0 81.28 81.28">
  <defs>
    <style>
      .cls-1 {
        fill: url(#Degradado_sin_nombre_55);
      }

      .cls-2 {
        fill: url(#Degradado_sin_nombre_53);
      }

      .cls-3 {
        fill: url(#Degradado_sin_nombre_54);
      }

      .cls-4 {
        fill: url(#Degradado_sin_nombre_56);
      }
    </style>
    <linearGradient id="Degradado_sin_nombre_53" data-name="Degradado sin nombre 53" x1="23.46" y1="3.8" x2="57.82" y2="77.48" gradientUnits="userSpaceOnUse">
      <stop offset="0" stop-color="#ffff72"/>
      <stop offset=".47" stop-color="#ffdc00"/>
      <stop offset="1" stop-color="#e38c00"/>
    </linearGradient>
    <linearGradient id="Degradado_sin_nombre_56" data-name="Degradado sin nombre 56" x1="24.38" y1="5.78" x2="56.9" y2="75.5" gradientUnits="userSpaceOnUse">
      <stop offset="0" stop-color="#ffdc00"/>
      <stop offset=".25" stop-color="#ffff6b"/>
      <stop offset=".6" stop-color="#ffdc00"/>
      <stop offset="1" stop-color="orange"/>
    </linearGradient>
    <linearGradient id="Degradado_sin_nombre_55" data-name="Degradado sin nombre 55" x1="27.15" y1="11.7" x2="54.14" y2="69.58" gradientUnits="userSpaceOnUse">
      <stop offset="0" stop-color="#ff9000"/>
      <stop offset="1" stop-color="#ffc600"/>
    </linearGradient>
    <linearGradient id="Degradado_sin_nombre_54" data-name="Degradado sin nombre 54" x1="28.06" y1="13.67" x2="53.22" y2="67.61" gradientUnits="userSpaceOnUse">
      <stop offset="0" stop-color="#ffc600"/>
      <stop offset="1" stop-color="#ff9000"/>
    </linearGradient>
  </defs>
  <g id="PRINT">
    <g>
      <circle class="cls-2" cx="40.64" cy="40.64" r="40.64"/>
      <path class="cls-4" d="m40.64,79.11c-21.21,0-38.47-17.26-38.47-38.47S19.43,2.17,40.64,2.17s38.47,17.26,38.47,38.47-17.26,38.47-38.47,38.47Z"/>
      <path class="cls-1" d="m40.64,72.58c-17.61,0-31.93-14.33-31.93-31.93s14.33-31.94,31.93-31.94,31.93,14.33,31.93,31.94-14.33,31.93-31.93,31.93Z"/>
      <path class="cls-3" d="m40.64,70.4c-16.41,0-29.76-13.35-29.76-29.76s13.35-29.76,29.76-29.76,29.76,13.35,29.76,29.76-13.35,29.76-29.76,29.76Z"/>
    </g>
  </g>
</svg>